<?xml version="1.0" standalone="no"?>
<!DOCTYPE svg PUBLIC "-//W3C//DTD SVG 20010904//EN"
 "http://www.w3.org/TR/2001/REC-SVG-20010904/DTD/svg10.dtd">
<svg version="1.0" xmlns="http://www.w3.org/2000/svg"
 width="1024.000000pt" height="1024.000000pt" viewBox="0 0 1024.000000 1024.000000"
 preserveAspectRatio="xMidYMid meet">
<metadata>
Created by potrace 1.11, written by Peter Selinger 2001-2013
</metadata>
<g transform="translate(0.000000,1024.000000) scale(0.100000,-0.100000)"
fill="#000000" stroke="none">
<path d="M3888 8985 c-2 -1 -37 -5 -78 -9 -106 -8 -157 -19 -270 -56 -103 -33
-264 -123 -321 -179 -8 -9 -31 -30 -50 -46 -101 -89 -178 -231 -209 -389 -18
-91 -16 -253 5 -356 3 -14 8 -41 11 -60 3 -19 11 -44 17 -55 6 -11 9 -21 8
-23 -8 -8 89 -237 120 -282 51 -76 263 -449 260 -458 -1 -1 6 -19 15 -40 23
-53 29 -88 27 -161 -4 -171 -90 -313 -249 -414 -69 -43 -240 -108 -324 -122
-19 -3 -42 -8 -50 -10 -8 -2 -35 -7 -60 -10 -25 -3 -61 -8 -80 -10 -179 -24
-580 -24 -830 0 -25 3 -65 6 -90 9 -25 2 -74 9 -110 15 -36 6 -83 13 -105 16
-22 3 -49 7 -60 10 -18 3 -184 30 -257 40 -15 2 -53 9 -85 14 -32 6 -92 16
-133 22 -41 6 -84 12 -95 14 -11 2 -44 6 -72 10 l-53 8 0 -2516 0 -2515 37 -7
c21 -4 39 -7 40 -7 2 1 17 -4 35 -9 18 -5 47 -12 63 -15 17 -3 46 -9 65 -14
19 -5 49 -12 65 -14 100 -19 205 -36 240 -40 94 -12 113 -14 175 -21 94 -11
115 -13 220 -20 52 -4 120 -9 150 -11 122 -9 740 -12 805 -4 39 5 90 12 114
15 104 14 248 57 363 108 119 53 211 132 266 229 46 80 61 146 59 246 -2 76
-6 95 -35 151 -34 65 -95 150 -176 244 -26 32 -128 165 -145 190 -8 12 -31 47
-51 77 -89 133 -130 225 -166 365 -19 76 -22 111 -19 225 2 74 8 150 14 168 5
17 8 32 6 32 -16 0 91 242 115 260 4 3 11 12 16 21 18 33 100 116 154 156 51
38 173 102 202 107 7 1 18 4 23 8 13 8 154 44 215 55 86 15 369 8 460 -11 247
-51 461 -195 571 -383 120 -204 137 -472 45 -716 -39 -104 -73 -164 -195 -345
-159 -237 -192 -295 -240 -419 -21 -53 -24 -63 -39 -139 -12 -58 -5 -177 14
-243 17 -61 53 -131 66 -131 4 0 8 -5 8 -12 0 -6 21 -31 47 -55 69 -63 196
-122 303 -139 14 -3 36 -7 50 -9 51 -11 67 -13 140 -24 187 -27 479 -29 670
-6 19 2 64 7 100 10 36 3 99 10 140 15 41 5 102 12 135 15 33 3 79 8 103 10
23 2 75 7 115 10 39 3 83 8 97 10 14 2 54 6 90 10 36 3 76 7 90 10 14 2 52 7
85 10 84 8 147 15 170 20 21 4 229 18 278 18 23 1 26 4 21 21 -6 18 -15 52
-28 106 -9 36 -46 218 -50 245 -2 17 -7 50 -11 75 -4 25 -8 56 -10 70 -36 240
-50 612 -28 755 16 105 18 117 43 183 71 192 202 314 371 347 204 38 391 -29
753 -270 230 -153 318 -197 467 -235 254 -65 547 0 723 161 66 61 146 158 146
178 0 5 4 11 8 13 28 12 109 240 128 358 14 95 16 307 2 378 -24 129 -32 162
-54 227 -64 190 -173 333 -334 440 -61 41 -161 88 -212 101 -51 12 -67 16
-113 24 -65 11 -274 6 -345 -10 -172 -37 -331 -104 -527 -221 -73 -43 -137
-79 -142 -79 -5 0 -11 -3 -13 -7 -5 -11 -163 -88 -233 -113 -33 -12 -85 -22
-115 -23 -60 -1 -146 18 -171 40 -8 7 -20 13 -25 13 -16 0 -90 82 -117 130
-41 71 -77 194 -92 309 -13 101 -14 483 -1 586 3 22 8 65 11 95 12 108 16 145
20 170 3 14 8 43 11 65 15 101 45 273 54 300 16 54 76 293 146 580 13 55 38
157 56 227 17 70 29 130 27 133 -5 4 -106 -30 -164 -55 -11 -5 -113 -40 -227
-79 -114 -38 -212 -72 -217 -76 -6 -3 -11 -4 -11 -1 0 3 -12 1 -27 -5 -27 -11
-49 -18 -183 -57 -36 -11 -121 -36 -190 -57 -69 -20 -159 -46 -200 -57 -41
-10 -82 -21 -90 -23 -52 -14 -266 -55 -316 -60 -32 -4 -68 -9 -79 -11 -141
-27 -603 -33 -740 -9 -136 23 -282 88 -364 161 -44 39 -106 145 -126 217 -39
138 -8 360 72 510 9 17 18 34 18 37 4 17 62 106 207 318 193 280 254 515 207
787 -15 90 -37 143 -105 266 -24 42 -108 131 -162 172 -32 23 -59 44 -62 47
-3 3 -36 22 -75 42 -134 69 -289 108 -457 113 -59 2 -108 2 -110 0z"/>
</g>
</svg>
